<svg xmlns="http://www.w3.org/2000/svg" viewBox="0 0 320 320">
  <defs>
    <linearGradient id="g" x1="0" y1="0" x2="1" y2="1">
      <stop offset="0" stop-color="#be185d"/>
      <stop offset="1" stop-color="#f472b6"/>
    </linearGradient>
    <clipPath id="c"><circle cx="160" cy="160" r="150"/></clipPath>
  </defs>
  <circle cx="160" cy="160" r="150" fill="url(#g)"/>
  <g clip-path="url(#c)">
    <circle cx="72" cy="54" r="86" fill="rgba(255,255,255,.16)"/>
    <circle cx="264" cy="96" r="70" fill="rgba(255,255,255,.12)"/>
    <path d="M75 320c12-76 58-116 85-116s73 40 85 116H75z" fill="#0f172a"/>
    <path d="M95 320c10-54 40-82 65-82s55 28 65 82H95z" fill="rgba(255,255,255,.12)"/>
    <circle cx="160" cy="135" r="58" fill="#d9a579"/>
    <path d="M103 127c10-58 48-79 91-58 23 11 38 34 30 75-19-27-64-31-99-15-5 2-13 1-22-2z" fill="#1f2937"/>
    <circle cx="139" cy="142" r="5" fill="#111827"/>
    <circle cx="181" cy="142" r="5" fill="#111827"/>
    <path d="M143 169c14 12 26 12 40 0" fill="none" stroke="#7c2d12" stroke-width="7" stroke-linecap="round"/>
    <circle cx="160" cy="238" r="32" fill="rgba(255,255,255,.18)"/>
    <text x="160" y="249" text-anchor="middle" font-family="Arial, sans-serif" font-size="34" font-weight="800" fill="white">N</text>
  </g>
</svg>